PathFileType	4	(X/Y/Z)	C:\Users\Basilio\Documents\Thesis Gigler\squatting_fais\c3dfiles\054\SJ_pre1\markers_experimental.trc
DataRate	CameraRate	NumFrames	NumMarkers	Units	OrigDataRate	OrigDataStartFrame	OrigNumFrames
200.000000	200.000000	4	61	mm	200.000000	1722	1968
Frame#	Time	FHD			LBHD			RBHD			C7			T10			CLAV			LSHO			LUUPA			LMUPA			LDUPA			LLEP			LMEP			LRAD			LUL			LRFIN			RSHO			RUPA1			RMUPA			RDUPA			RLEP			RMEP			RRAD			RUL			RUFIN			LASI			RASI			USACR			LSACR			RSACR			LTHI1			LTHI2			LTHI3			LTHI4			LLFC			LMFC			LTIB1			LTIB2			LTIB3			LTIB4			LLMAL			LMMAL			LHEE			LMT1			LMT2			LMT5			RTHI			RTHI2			RTHI3			RTHI4			RLFC			RMFC			RTIB1			RTIB2			RTIB3			RTIB4			RLMAL			RMMAL			RHEE			RMT1			RMT2			RMT5			
		X1	Y1	Z1	X2	Y2	Z2	X3	Y3	Z3	X4	Y4	Z4	X5	Y5	Z5	X6	Y6	Z6	X7	Y7	Z7	X8	Y8	Z8	X9	Y9	Z9	X10	Y10	Z10	X11	Y11	Z11	X12	Y12	Z12	X13	Y13	Z13	X14	Y14	Z14	X15	Y15	Z15	X16	Y16	Z16	X17	Y17	Z17	X18	Y18	Z18	X19	Y19	Z19	X20	Y20	Z20	X21	Y21	Z21	X22	Y22	Z22	X23	Y23	Z23	X24	Y24	Z24	X25	Y25	Z25	X26	Y26	Z26	X27	Y27	Z27	X28	Y28	Z28	X29	Y29	Z29	X30	Y30	Z30	X31	Y31	Z31	X32	Y32	Z32	X33	Y33	Z33	X34	Y34	Z34	X35	Y35	Z35	X36	Y36	Z36	X37	Y37	Z37	X38	Y38	Z38	X39	Y39	Z39	X40	Y40	Z40	X41	Y41	Z41	X42	Y42	Z42	X43	Y43	Z43	X44	Y44	Z44	X45	Y45	Z45	X46	Y46	Z46	X47	Y47	Z47	X48	Y48	Z48	X49	Y49	Z49	X50	Y50	Z50	X51	Y51	Z51	X52	Y52	Z52	X53	Y53	Z53	X54	Y54	Z54	X55	Y55	Z55	X56	Y56	Z56	X57	Y57	Z57	X58	Y58	Z58	X59	Y59	Z59	X60	Y60	Z60	X61	Y61	Z61	

1723	8.609999999999999	-127.5424728393555	1745.573364257813	-866.9358520507815	-280.3882751464844	1680.656860351563	-946.3682861328127	-304.1646728515626	1674.391235351563	-808.4746093750002	-339.3841552734376	1535.455444335938	-870.153015136719	-409.7921447753907	1199.501342773438	-890.5967407226565	-206.1270599365235	1455.371459960938	-874.0303955078127	-250.1010437011719	1533.285522460938	-1026.553466796875	-343.1967163085938	1426.164916992188	-1215.385009765625	-310.8763122558594	1385.728149414063	-1221.582885742188	-356.1920471191407	1375.54443359375	-1261.95556640625	-357.4943542480469	1311.829956054688	-1285.900390625	-436.3945922851564	1302.21533203125	-1244.405639648438	-361.3539733886719	1099.194702148438	-1126.889526367188	-317.6097717285157	1058.673583984375	-1176.85009765625	-303.8865051269532	1096.47216796875	-1083.495361328125	-244.4449310302735	1519.060180664063	-711.7423095703126	-351.2008361816407	1386.13232421875	-538.4719238281251	-329.6074218750001	1342.172241210938	-536.2454223632814	-379.8303222656251	1331.695068359375	-503.8274230957032	-393.9163818359376	1282.8603515625	-490.0940856933595	-462.1373901367189	1285.514404296875	-544.4586181640626	-393.675994873047	1073.287963867188	-673.4067382812501	-352.6935424804688	1038.629760742188	-613.5357666015626	-329.3581542968751	1083.849243164063	-695.7765502929689	-231.456039428711	1007.846069335938	-1009.537536621094	-240.2560424804688	1011.728881835938	-754.4139404296876	-419.0914001464845	1106.085815429688	-890.166687011719	-424.2902221679689	1075.122192382813	-919.133239746094	-427.2054443359376	1073.4892578125	-862.5864257812502	-359.9049682617188	798.1973266601565	-1119.874633789063	-334.3690490722657	718.2981567382814	-1134.39111328125	-286.7663574218751	718.7767944335939	-1133.790405273438	-365.9926452636719	666.1046142578126	-1123.814208984375	-370.1260375976563	510.7600708007814	-1131.88525390625	-309.6460266113282	477.2380676269532	-1012.413208007813	-315.9080505371094	348.0803527832032	-1139.867431640625	-381.7816162109376	312.3883972167969	-1190.361206054688	-335.3533630371094	307.1190490722657	-1179.135498046875	-329.0569152832032	223.9070434570313	-1165.6923828125	-394.2982788085939	90.86317443847658	-1221.8525390625	-334.1588439941407	95.71755981445314	-1144.284545898438	-439.0372314453126	50.43603515625001	-1151.705444335938	-224.8341979980469	54.49033737182619	-1212.344360351563	-235.7638854980469	58.40700531005861	-1260.66162109375	-300.2694702148438	37.82361221313477	-1295.162719726563	-378.2329711914063	731.2222900390626	-668.7781982421876	-346.7127075195313	674.7345581054689	-657.5152587890626	-314.2164001464844	673.1690063476564	-655.6007080078126	-376.4997863769532	597.6909790039064	-674.7716674804689	-394.0313110351564	505.5245666503907	-671.3464965820314	-309.8881835937501	491.5017700195314	-779.660827636719	-346.6011657714844	399.0362243652345	-644.4259033203126	-426.7740478515626	330.5639038085938	-624.9665527343751	-380.8635559082032	322.4620361328126	-617.8405151367189	-360.9608764648438	269.9587097167969	-628.0801391601564	-427.2780151367189	92.28118896484376	-600.0050048828126	-360.5397949218751	98.90242004394534	-668.6464843750001	-463.1938781738282	48.27748870849611	-673.5039062500001	-249.8348693847657	53.6000099182129	-594.9650878906251	-268.1644897460938	55.24462127685548	-550.7453613281251	-331.1222534179688	34.31509399414063	-522.8598632812501	
1724	8.615	-128.0372772216797	1745.281860351563	-866.7374267578127	-280.8797302246094	1680.50244140625	-946.359069824219	-305.0061950683594	1674.230590820313	-808.4820556640627	-340.1671447753907	1534.995239257813	-870.050964355469	-409.5869750976564	1198.675048828125	-890.6082153320315	-206.4964752197266	1455.095581054688	-873.9993286132815	-251.0012664794922	1532.802978515625	-1026.649291992188	-343.9720764160157	1425.412353515625	-1215.5283203125	-311.0111389160157	1384.748901367188	-1221.578369140625	-355.6077270507813	1373.871337890625	-1261.73095703125	-357.4871826171876	1310.625854492188	-1285.763061523438	-436.3794555664064	1300.848999023438	-1244.565307617188	-361.0445861816407	1098.185668945313	-1126.767333984375	-317.1637878417969	1057.515014648438	-1176.670654296875	-303.6093139648438	1095.734375	-1083.448974609375	-245.4159698486329	1518.749267578125	-711.4814453125001	-351.7253723144532	1385.05322265625	-538.4300537109376	-330.2759094238282	1341.038452148438	-536.1415405273439	-380.5092468261719	1330.627319335938	-503.586639404297	-394.1924438476564	1281.799682617188	-490.1677551269532	-462.5003662109376	1284.271362304688	-544.5120239257814	-393.3442993164064	1072.269897460938	-673.4907836914064	-352.4222717285157	1037.705322265625	-613.5803222656251	-329.1575622558594	1083.259033203125	-695.6369018554689	-230.5677032470704	1007.457946777344	-1009.551452636719	-239.4485778808594	1011.699523925781	-754.2305908203126	-418.5117797851564	1105.37158203125	-890.1865844726565	-423.7079467773439	1074.454833984375	-919.1286621093752	-426.600555419922	1072.772094726563	-862.4361572265627	-359.3188781738282	798.170837402344	-1119.61865234375	-334.0306091308594	718.0889282226564	-1134.036376953125	-286.5123291015626	718.4388427734376	-1133.543334960938	-365.4776306152344	665.9343872070314	-1123.381713867188	-370.2294921875001	510.479705810547	-1131.34716796875	-310.2048034667969	476.933074951172	-1011.862854003906	-316.4440002441407	347.9445190429688	-1139.406982421875	-382.1584167480469	312.3893737792969	-1189.966064453125	-336.2529602050782	307.1263427734376	-1178.752319335938	-329.2006530761719	223.9523315429688	-1165.55419921875	-394.3613586425782	90.85830688476564	-1221.789794921875	-334.1765441894532	95.68398284912111	-1144.272338867188	-439.0192260742189	50.39153289794923	-1151.663452148438	-224.8846130371094	54.47612762451173	-1212.3525390625	-235.7362670898438	58.41380691528322	-1260.69140625	-300.3158569335938	37.77034759521485	-1295.22509765625	-377.7593994140626	731.3276367187501	-668.8037109375001	-346.5832824707032	674.5989990234376	-657.7301635742189	-314.0486755371094	672.9718627929689	-655.8505859375001	-376.6695861816407	597.7635498046876	-675.0797119140626	-394.4925842285157	505.5658569335939	-671.7480468750001	-310.6491088867188	491.2846679687501	-780.1508789062502	-347.2521972656251	399.2474365234376	-644.7477416992189	-427.1094055175782	330.5497131347657	-625.2805175781251	-381.2105712890626	322.6583862304688	-618.0639648437501	-361.4056701660157	270.0126953125001	-628.0698242187501	-427.3387451171876	92.27500915527345	-600.0238037109376	-360.5815734863282	98.907341003418	-668.5792236328126	-463.2390441894532	48.28351211547853	-673.5061645507814	-249.8697204589844	53.57727050781251	-594.9525146484376	-268.1624450683594	55.19984436035158	-550.6730957031251	-331.1141357421876	34.24864959716798	-522.8343505859376	
1725	8.620000000000001	-128.704818725586	1744.796264648438	-866.2781982421877	-281.2289428710938	1680.260009765625	-946.3664550781252	-305.6517028808594	1674.03173828125	-808.5161132812502	-340.8800964355469	1534.450317382813	-869.9841308593752	-409.4531250000001	1198.048217773438	-890.604675292969	-206.9537353515626	1454.913696289063	-873.8363037109377	-251.8565673828126	1532.3095703125	-1026.757446289063	-343.7412719726563	1423.85595703125	-1215.295654296875	-311.2942199707032	1383.682739257813	-1221.509521484375	-356.3717651367188	1373.022216796875	-1261.805297851563	-357.3655395507813	1309.321533203125	-1285.674682617188	-436.3840637207032	1299.399169921875	-1244.5185546875	-360.2357177734376	1096.834594726563	-1126.57958984375	-316.6524047851563	1056.433471679688	-1176.487182617188	-303.1728210449219	1094.838989257813	-1083.457397460938	-246.6112823486329	1518.305419921875	-711.1976928710939	-352.4610290527344	1384.281127929688	-538.3812255859376	-330.4884643554688	1340.294799804688	-536.3787841796876	-380.9771728515626	1329.617797851563	-503.7241210937501	-394.5605773925782	1280.64208984375	-490.0388488769532	-462.8276977539064	1283.028686523438	-544.5176391601564	-393.0581665039064	1071.406494140625	-673.5473022460939	-352.1433105468751	1036.847045898438	-613.5208740234376	-329.0040588378907	1082.602416992188	-695.4353637695314	-229.6422729492188	1007.097106933594	-1009.480224609375	-238.482406616211	1011.5693359375	-754.0710449218751	-418.0841064453126	1104.513549804688	-890.0584716796877	-422.6329650878907	1073.577026367188	-918.9847412109377	-425.8813781738282	1071.961059570313	-862.4412841796877	-358.7862854003907	798.0780029296877	-1119.434204101563	-333.5795898437501	718.0927734375001	-1133.77001953125	-286.1392517089844	718.1623535156251	-1133.305541992188	-365.7037658691407	665.9530029296876	-1122.851806640625	-370.9052734375001	510.537567138672	-1130.685546875	-310.6268920898438	476.7464599609376	-1011.473510742188	-316.9793090820313	347.9846191406251	-1138.926635742188	-382.4641418457032	312.3139953613282	-1189.588134765625	-336.6205444335938	307.3175048828126	-1178.390869140625	-329.2483215332032	224.0277099609376	-1165.34521484375	-394.3668518066407	90.8591766357422	-1221.74169921875	-333.9445495605469	95.67502593994142	-1144.123046875	-438.9907836914064	50.41299057006837	-1151.700073242188	-224.8734130859376	54.47802734375001	-1212.456665039063	-235.7662811279297	58.34825897216798	-1260.73046875	-300.2806396484376	37.74675369262696	-1295.265014648438	-377.2516479492188	731.3043212890626	-668.8767089843751	-346.3614807128907	674.4263916015626	-657.6686401367189	-313.8724670410157	672.6926269531251	-655.7839965820314	-376.8130493164063	597.8468627929689	-675.3814086914064	-394.9297180175782	505.5285644531251	-672.1673583984376	-311.1636047363282	491.1521911621095	-780.5256347656252	-347.7115478515626	399.3603515625001	-645.0440673828126	-427.4277648925782	330.5924682617188	-625.5274047851564	-381.6274414062501	322.8114013671876	-618.3313598632814	-361.5767822265626	270.1125488281251	-628.2050170898439	-427.4059143066407	92.24121856689455	-600.0099487304689	-360.6130065917969	98.90718841552737	-668.5935668945314	-463.1705932617189	48.27826309204103	-673.4816894531251	-249.8673248291016	53.63569641113283	-594.8782958984376	-268.1652221679688	55.18897628784181	-550.5874023437501	-331.1374816894532	34.19395828247071	-522.8040771484376	
1726	8.625	-128.9272766113282	1744.50390625	-865.9678955078127	-281.7251892089844	1680.07470703125	-946.3904418945315	-306.3884887695313	1673.811279296875	-808.6387329101565	-341.6417541503907	1533.951293945313	-869.902038574219	-409.3912963867189	1197.222778320313	-890.4732666015627	-207.534164428711	1454.672607421875	-873.698425292969	-252.6323242187501	1531.713134765625	-1026.793212890625	-344.1205444335938	1422.824951171875	-1215.251220703125	-311.6596069335938	1382.732543945313	-1221.407592773438	-356.6283874511719	1371.98828125	-1261.835571289063	-357.3490600585938	1308.06103515625	-1285.546508789063	-436.4082031250001	1297.962646484375	-1244.542358398438	-360.2267150878907	1095.755737304688	-1126.341918945313	-316.2978515625001	1055.283813476563	-1176.293579101563	-302.7904968261719	1093.858520507813	-1083.516967773438	-247.3273162841797	1517.842529296875	-711.0531005859376	-353.1730651855469	1383.411376953125	-538.2943725585939	-331.3396301269532	1339.48046875	-536.1445922851564	-381.7103576660157	1328.581420898438	-503.5401916503907	-394.9156799316407	1279.678955078125	-489.975555419922	-463.1434020996095	1281.830932617188	-544.4529418945314	-392.8986206054689	1070.51318359375	-673.5933837890626	-351.7593994140626	1035.95947265625	-613.6256103515626	-328.5888977050782	1081.673950195313	-695.1250610351564	-228.8269348144532	1006.599609375	-1009.379333496094	-237.7916717529297	1011.513977050781	-753.7940063476564	-417.618133544922	1103.965576171875	-890.001403808594	-423.0068664550782	1073.010131835938	-918.889099121094	-424.8172912597657	1071.01416015625	-862.3304443359377	-358.1976928710938	798.0676879882815	-1119.071411132813	-333.2933349609376	717.9581298828126	-1133.535278320313	-285.9212341308594	718.0073242187501	-1133.141357421875	-365.3890380859376	665.8817138671876	-1122.6015625	-371.3411254882813	510.4625854492189	-1130.15625	-311.0416870117188	476.5032958984376	-1010.987365722656	-317.5057678222657	348.1236877441407	-1138.560424804688	-382.8150329589844	312.3778076171876	-1189.298461914063	-336.8420715332032	307.2431030273438	-1178.09228515625	-329.3125915527344	224.083724975586	-1165.20556640625	-394.1134643554689	90.72795867919923	-1221.787231445313	-334.1778869628907	95.66455078125001	-1144.226684570313	-439.0172119140626	50.38795471191408	-1151.709228515625	-224.8813934326172	54.47011947631837	-1212.477294921875	-235.8215484619141	58.34387588500978	-1260.770629882813	-300.2890014648438	37.72264099121094	-1295.30859375	-376.7653198242188	731.3726806640626	-668.9047241210939	-346.0638122558594	674.3163452148439	-657.9078369140626	-313.6178283691407	672.4454956054689	-656.0567016601564	-377.0119934082032	597.8568725585939	-675.6367187500001	-395.5747375488282	505.5498352050782	-672.4240722656251	-311.5918273925782	491.1033935546876	-780.827087402344	-348.1140441894532	399.3975219726564	-645.2958374023439	-427.7666625976564	330.5332336425782	-625.8408813476564	-381.8884582519532	322.9370727539063	-618.5786132812501	-361.8689575195313	270.2431335449219	-628.2185668945314	-427.4447631835939	92.2201385498047	-600.0499877929689	-360.6730041503907	98.95232391357425	-668.5111694335939	-463.1953125000001	48.27305603027345	-673.5181884765626	-249.8753814697266	53.63341140747072	-594.8864746093751	-268.1678771972657	55.15161514282228	-550.5636596679689	-331.1538085937501	34.15895080566407	-522.8182373046876	
